<svg width="40" height="40" viewBox="0 0 40 40" fill="none" xmlns="http://www.w3.org/2000/svg">
<path d="M13.4722 16.3894L16.6667 17.3116L20.1778 14.7616L15.1389 14.906C15.0895 14.9087 15.0417 14.924 15 14.9505L13.4055 15.8672C13.3559 15.8946 13.3157 15.9364 13.2901 15.9869C13.2645 16.0375 13.2546 16.0946 13.2618 16.1509C13.269 16.2071 13.2929 16.2599 13.3304 16.3024C13.3679 16.3449 13.4173 16.3752 13.4722 16.3894Z" fill="#E0B100"/>
<path d="M29.1778 13.5337L25.6778 12.7782C25.3834 12.7142 25.0788 12.7144 24.7845 12.7786C24.4902 12.8429 24.2132 12.9696 23.9722 13.1504L13.4 20.8337L10.8611 20.7226C10.7157 20.7176 10.5724 20.7585 10.4514 20.8394C10.3305 20.9203 10.238 21.0371 10.187 21.1734C10.1361 21.3097 10.1292 21.4586 10.1674 21.599C10.2056 21.7394 10.287 21.8643 10.4 21.9559L12.8722 23.917C12.9129 23.9499 12.9614 23.9717 13.0129 23.9805C13.0645 23.9892 13.1174 23.9846 13.1667 23.967C13.8722 23.6948 16.5 22.3004 19.6056 20.5948L20.2278 26.9893C20.2331 27.0446 20.2534 27.0975 20.2865 27.1422C20.3196 27.1869 20.3643 27.2217 20.4158 27.2429C20.4672 27.264 20.5235 27.2707 20.5785 27.2623C20.6334 27.2538 20.6851 27.2305 20.7278 27.1948L22.1167 26.0393C22.1927 25.9755 22.2438 25.887 22.2611 25.7893L23.5778 18.4059C25.8 17.1726 27.9222 15.9781 29.4167 15.1337C29.5718 15.0493 29.6972 14.9193 29.7759 14.7613C29.8546 14.6032 29.8828 14.4248 29.8568 14.2502C29.8307 14.0755 29.7516 13.9131 29.6301 13.785C29.5087 13.6568 29.3507 13.5691 29.1778 13.5337Z" fill="#E0B100"/>
<rect x="0.499878" y="0.5" width="39" height="39" rx="19.5" stroke="#E0B100"/>
</svg>
