<svg width="24" height="24" viewBox="0 0 24 24" fill="none" xmlns="http://www.w3.org/2000/svg">
<path d="M12 12C10.625 12 9.44792 11.5104 8.46875 10.5312C7.48958 9.55208 7 8.375 7 7C7 5.625 7.48958 4.44792 8.46875 3.46875C9.44792 2.48958 10.625 2 12 2C13.375 2 14.5521 2.48958 15.5312 3.46875C16.5104 4.44792 17 5.625 17 7C17 8.375 16.5104 9.55208 15.5312 10.5312C14.5521 11.5104 13.375 12 12 12ZM2 22V18.5C2 17.7917 2.1825 17.1404 2.5475 16.5463C2.9125 15.9521 3.39667 15.4992 4 15.1875C5.29167 14.5417 6.60417 14.0571 7.9375 13.7338C9.27083 13.4104 10.625 13.2492 12 13.25C13.375 13.25 14.7292 13.4117 16.0625 13.735C17.3958 14.0583 18.7083 14.5425 20 15.1875C20.6042 15.5 21.0887 15.9533 21.4538 16.5475C21.8188 17.1417 22.0008 17.7925 22 18.5V22H2Z" fill="#F5F5F5"/>
</svg>
